<?xml version="1.0" encoding="utf-8"?>
<!-- Generator: Adobe Illustrator 20.0.0, SVG Export Plug-In . SVG Version: 6.00 Build 0)  -->
<svg version="1.1" id="Layer_1" xmlns="http://www.w3.org/2000/svg" xmlns:xlink="http://www.w3.org/1999/xlink" x="0px" y="0px"
	 viewBox="0 0 20.5 20.5" style="enable-background:new 0 0 20.5 20.5;" xml:space="preserve">
<style type="text/css">
	.st0{clip-path:url(#SVGID_2_);}
	.st1{opacity:0.35;fill:url(#SVGID_3_);}
	.st2{clip-path:url(#SVGID_5_);}
	.st3{clip-path:url(#SVGID_7_);}
	.st4{opacity:0.25;}
	.st5{opacity:0.35;fill:url(#SVGID_10_);}
	.st6{clip-path:url(#SVGID_12_);}
	.st7{clip-path:url(#SVGID_14_);}
	.st8{opacity:0.35;fill:url(#SVGID_17_);}
	.st9{fill:none;stroke:#E6E6E6;stroke-width:4;stroke-miterlimit:10;}
	.st10{clip-path:url(#SVGID_19_);}
	.st11{clip-path:url(#SVGID_21_);}
	.st12{clip-path:url(#SVGID_23_);}
	.st13{clip-path:url(#SVGID_25_);}
	.st14{clip-path:url(#SVGID_27_);}
	.st15{fill:none;stroke:#000000;stroke-miterlimit:10;}
	.st16{clip-path:url(#SVGID_29_);}
	.st17{clip-path:url(#SVGID_31_);}
	.st18{clip-path:url(#SVGID_33_);}
	.st19{clip-path:url(#SVGID_35_);}
	.st20{clip-path:url(#SVGID_37_);}
	.st21{fill:#FFFFFF;}
	.st22{clip-path:url(#SVGID_39_);}
	.st23{clip-path:url(#SVGID_43_);}
	.st24{clip-path:url(#SVGID_47_);}
	.st25{clip-path:url(#SVGID_49_);}
	.st26{clip-path:url(#SVGID_53_);}
	.st27{opacity:0.91;}
	.st28{fill:#F2F2F2;}
	.st29{opacity:0.35;fill:url(#SVGID_54_);}
	.st30{fill:none;stroke:#E6E6E6;stroke-miterlimit:10;}
	.st31{clip-path:url(#SVGID_56_);}
	.st32{clip-path:url(#SVGID_58_);}
	.st33{opacity:0.35;fill:url(#SVGID_61_);}
	.st34{clip-path:url(#SVGID_63_);}
	.st35{clip-path:url(#SVGID_65_);}
	.st36{opacity:0.35;fill:url(#SVGID_68_);}
	.st37{fill:#E6E6E6;}
	.st38{clip-path:url(#SVGID_70_);}
	.st39{opacity:0.35;fill:url(#SVGID_71_);}
	.st40{clip-path:url(#SVGID_73_);}
	.st41{opacity:0.35;fill:url(#SVGID_74_);}
	.st42{opacity:0.35;fill:url(#SVGID_75_);}
	.st43{fill:none;stroke:#E6E6E6;stroke-width:2;stroke-miterlimit:10;}
	.st44{fill:none;stroke:#E6E6E6;stroke-width:5;stroke-miterlimit:10;}
	.st45{opacity:0.35;fill:url(#SVGID_76_);}
	.st46{clip-path:url(#SVGID_78_);}
	.st47{clip-path:url(#SVGID_80_);}
	.st48{opacity:0.35;fill:url(#SVGID_83_);}
	.st49{fill:none;stroke:#FFFFFF;stroke-miterlimit:10;}
	.st50{fill:none;stroke:#000000;stroke-width:2;stroke-miterlimit:10;}
	.st51{fill:#666666;}
	.st52{fill:none;stroke:#666666;stroke-miterlimit:10;}
	.st53{clip-path:url(#SVGID_85_);}
	.st54{clip-path:url(#SVGID_89_);}
	.st55{opacity:0.35;}
	.st56{clip-path:url(#SVGID_93_);}
	.st57{clip-path:url(#SVGID_95_);}
	.st58{clip-path:url(#SVGID_97_);}
	.st59{clip-path:url(#SVGID_99_);}
	.st60{clip-path:url(#SVGID_101_);}
	.st61{clip-path:url(#SVGID_105_);}
	.st62{clip-path:url(#SVGID_109_);}
	.st63{clip-path:url(#SVGID_113_);}
	.st64{clip-path:url(#SVGID_115_);}
	.st65{clip-path:url(#SVGID_117_);}
	.st66{clip-path:url(#SVGID_119_);}
	.st67{clip-path:url(#SVGID_121_);}
	.st68{clip-path:url(#SVGID_123_);}
	.st69{clip-path:url(#SVGID_125_);}
	.st70{clip-path:url(#SVGID_127_);}
	.st71{clip-path:url(#SVGID_129_);}
	.st72{clip-path:url(#SVGID_131_);}
	.st73{clip-path:url(#SVGID_133_);}
	.st74{clip-path:url(#SVGID_135_);}
	.st75{clip-path:url(#SVGID_137_);}
	.st76{clip-path:url(#SVGID_139_);}
	.st77{clip-path:url(#SVGID_141_);}
	.st78{clip-path:url(#SVGID_143_);}
	.st79{clip-path:url(#SVGID_145_);}
	.st80{clip-path:url(#SVGID_153_);}
	.st81{clip-path:url(#SVGID_155_);}
	.st82{clip-path:url(#SVGID_157_);}
	.st83{clip-path:url(#SVGID_159_);}
	.st84{opacity:0.2;}
	.st85{clip-path:url(#SVGID_163_);}
	.st86{opacity:0.35;fill:url(#SVGID_166_);}
	.st87{fill:none;stroke:#000000;stroke-linecap:round;stroke-miterlimit:10;}
	.st88{fill:#5D5D5D;}
	.st89{clip-path:url(#SVGID_178_);}
	.st90{clip-path:url(#SVGID_180_);}
	.st91{clip-path:url(#SVGID_182_);}
	.st92{clip-path:url(#SVGID_184_);}
	.st93{clip-path:url(#SVGID_186_);}
	.st94{clip-path:url(#SVGID_188_);}
	.st95{clip-path:url(#SVGID_190_);}
	.st96{clip-path:url(#SVGID_192_);}
	.st97{clip-path:url(#SVGID_194_);}
	.st98{clip-path:url(#SVGID_196_);}
	.st99{clip-path:url(#SVGID_198_);}
	.st100{fill:none;stroke:#FFFFFF;stroke-width:3;stroke-miterlimit:10;}
	.st101{fill:none;stroke:#FFFFFF;stroke-width:3;stroke-linecap:round;stroke-miterlimit:10;}
	.st102{clip-path:url(#SVGID_200_);}
	.st103{opacity:0.35;fill:url(#SVGID_203_);}
	.st104{opacity:0.35;fill:url(#SVGID_204_);}
	.st105{clip-path:url(#SVGID_206_);}
	.st106{opacity:0.35;fill:url(#SVGID_207_);}
	.st107{opacity:0.35;fill:url(#SVGID_208_);}
	.st108{clip-path:url(#SVGID_210_);}
	.st109{clip-path:url(#SVGID_212_);}
</style>
<g>
	<g>
		<path class="st37" d="M10.2,1.8c2.7,0,3.1,0,4.1,0.1c1,0,1.5,0.2,1.9,0.4c0.5,0.2,0.8,0.4,1.2,0.8c0.4,0.4,0.6,0.7,0.8,1.2
			c0.1,0.4,0.3,0.9,0.4,1.9c0,1.1,0.1,1.4,0.1,4.1c0,2.7,0,3.1-0.1,4.1c0,1-0.2,1.5-0.4,1.9c-0.2,0.5-0.4,0.8-0.8,1.2
			c-0.4,0.4-0.7,0.6-1.2,0.8c-0.4,0.1-0.9,0.3-1.9,0.4c-1.1,0-1.4,0.1-4.1,0.1c-2.7,0-3.1,0-4.1-0.1c-1,0-1.5-0.2-1.9-0.4
			c-0.5-0.2-0.8-0.4-1.2-0.8c-0.4-0.4-0.6-0.7-0.8-1.2c-0.1-0.4-0.3-0.9-0.4-1.9c0-1.1-0.1-1.4-0.1-4.1c0-2.7,0-3.1,0.1-4.1
			c0-1,0.2-1.5,0.4-1.9C2.4,3.7,2.7,3.4,3,3c0.4-0.4,0.7-0.6,1.2-0.8C4.6,2.1,5.1,2,6.1,1.9C7.2,1.9,7.5,1.8,10.2,1.8 M10.2,0
			C7.5,0,7.1,0,6,0.1c-1.1,0-1.8,0.2-2.5,0.5C2.9,0.8,2.3,1.2,1.7,1.7C1.2,2.3,0.8,2.9,0.5,3.5C0.3,4.2,0.1,4.9,0.1,6
			C0,7.1,0,7.5,0,10.2c0,2.8,0,3.1,0.1,4.2c0,1.1,0.2,1.8,0.5,2.5c0.3,0.7,0.6,1.2,1.2,1.8c0.6,0.6,1.1,0.9,1.8,1.2
			c0.7,0.3,1.4,0.4,2.5,0.5c1.1,0,1.4,0.1,4.2,0.1c2.8,0,3.1,0,4.2-0.1c1.1,0,1.8-0.2,2.5-0.5c0.7-0.3,1.2-0.6,1.8-1.2
			c0.6-0.6,0.9-1.1,1.2-1.8c0.3-0.7,0.4-1.4,0.5-2.5c0-1.1,0.1-1.4,0.1-4.2c0-2.8,0-3.1-0.1-4.2c0-1.1-0.2-1.8-0.5-2.5
			c-0.3-0.7-0.6-1.2-1.2-1.8c-0.6-0.6-1.1-0.9-1.8-1.2c-0.7-0.3-1.4-0.4-2.5-0.5C13.4,0,13,0,10.2,0"/>
		<path class="st37" d="M10.2,5C7.3,5,5,7.3,5,10.2c0,2.9,2.4,5.3,5.3,5.3s5.3-2.4,5.3-5.3C15.5,7.3,13.2,5,10.2,5 M10.2,13.7
			c-1.9,0-3.4-1.5-3.4-3.4s1.5-3.4,3.4-3.4s3.4,1.5,3.4,3.4S12.1,13.7,10.2,13.7"/>
		<path class="st37" d="M16.9,4.8c0,0.7-0.6,1.2-1.2,1.2c-0.7,0-1.2-0.6-1.2-1.2c0-0.7,0.6-1.2,1.2-1.2C16.4,3.5,16.9,4.1,16.9,4.8"
			/>
	</g>
</g>
</svg>
