<svg id="Layer_1" data-name="Layer 1" xmlns="http://www.w3.org/2000/svg" viewBox="0 0 24.61 19.71"><title>Web S&amp;amp;S</title><path d="M21.94,0H2.67A3,3,0,0,0,0,3.25v13.2a3,3,0,0,0,2.67,3.25H21.94a3,3,0,0,0,2.67-3.25V3.25A3,3,0,0,0,21.94,0ZM17.66,8.69,23.21,4V15.85Zm-15-7H21.94a1.16,1.16,0,0,1,.91.47l-9,7.69a2.65,2.65,0,0,1-1.47.66,2.18,2.18,0,0,1-1.4-.56L1.72,2.24A1.18,1.18,0,0,1,2.67,1.71ZM1.41,15.88V4.05L7,8.71ZM2.67,18a1.11,1.11,0,0,1-.74-.3l6.2-8,1.93,1.62a3.39,3.39,0,0,0,2.28.93,3.87,3.87,0,0,0,2.29-1l1.87-1.59,6.2,8a1.12,1.12,0,0,1-.75.31Z"/></svg>