<svg id="Layer_1" data-name="Layer 1" xmlns="http://www.w3.org/2000/svg" viewBox="0 0 20.5 20.5"><title>Web S&amp;amp;S</title><path d="M10.25,1.85c2.74,0,3.06,0,4.14.06a5.67,5.67,0,0,1,1.9.35A3.17,3.17,0,0,1,17.47,3a3.17,3.17,0,0,1,.77,1.18,5.67,5.67,0,0,1,.35,1.9c0,1.08.06,1.4.06,4.14s0,3.06-.06,4.14a5.67,5.67,0,0,1-.35,1.9,3.39,3.39,0,0,1-1.94,1.94,5.67,5.67,0,0,1-1.9.35c-1.08,0-1.4.06-4.14.06s-3.06,0-4.14-.06a5.67,5.67,0,0,1-1.9-.35A3.18,3.18,0,0,1,3,17.47a3.18,3.18,0,0,1-.77-1.18,5.67,5.67,0,0,1-.35-1.9c0-1.08-.06-1.4-.06-4.14s0-3.06.06-4.14a5.67,5.67,0,0,1,.35-1.9A3.18,3.18,0,0,1,3,3,3.17,3.17,0,0,1,4.2,2.26a5.67,5.67,0,0,1,1.9-.35c1.08,0,1.4-.06,4.14-.06m0-1.85C7.46,0,7.12,0,6,.06A7.52,7.52,0,0,0,3.54.54,5,5,0,0,0,1.72,1.72,5,5,0,0,0,.54,3.54,7.52,7.52,0,0,0,.06,6C0,7.12,0,7.46,0,10.25s0,3.13.06,4.23A7.52,7.52,0,0,0,.54,17a5,5,0,0,0,1.18,1.82A5,5,0,0,0,3.54,20,7.52,7.52,0,0,0,6,20.43c1.09,0,1.44.06,4.23.06s3.13,0,4.23-.06A7.52,7.52,0,0,0,17,20a5.24,5.24,0,0,0,3-3,7.52,7.52,0,0,0,.48-2.49c0-1.09.06-1.44.06-4.23s0-3.13-.06-4.23A7.52,7.52,0,0,0,20,3.54a5,5,0,0,0-1.18-1.82A5,5,0,0,0,17,.54,7.52,7.52,0,0,0,14.47.06C13.38,0,13,0,10.25,0"/><path d="M10.25,5a5.26,5.26,0,1,0,5.26,5.26A5.26,5.26,0,0,0,10.25,5m0,8.68a3.42,3.42,0,1,1,3.42-3.42,3.42,3.42,0,0,1-3.42,3.42"/><path d="M16.95,4.78a1.23,1.23,0,1,1-1.23-1.23,1.23,1.23,0,0,1,1.23,1.23"/></svg>